<?xml version="1.0" encoding="UTF-8" standalone="no"?>
<!-- Created with Inkscape (http://www.inkscape.org/) -->

<svg
   width="20.098717mm"
   height="17.31032mm"
   viewBox="0 0 20.098717 17.31032"
   version="1.1"
   id="svg1"
   xmlns="http://www.w3.org/2000/svg"
   xmlns:svg="http://www.w3.org/2000/svg">
  <defs
     id="defs1">
    <clipPath
       clipPathUnits="userSpaceOnUse"
       id="clipPath3">
      <path
         d="M 0,500 H 500 V 0 H 0 Z"
         transform="translate(-119.09931,-111.6405)"
         id="path3" />
    </clipPath>
    <clipPath
       clipPathUnits="userSpaceOnUse"
       id="clipPath5">
      <path
         d="M 0,500 H 500 V 0 H 0 Z"
         transform="translate(-87.683005,-129.19511)"
         id="path5" />
    </clipPath>
    <clipPath
       clipPathUnits="userSpaceOnUse"
       id="clipPath7">
      <path
         d="M 0,500 H 500 V 0 H 0 Z"
         transform="translate(-88.152602,-129.62381)"
         id="path7" />
    </clipPath>
    <clipPath
       clipPathUnits="userSpaceOnUse"
       id="clipPath9">
      <path
         d="M 0,500 H 500 V 0 H 0 Z"
         transform="translate(-95.276005,-134.4672)"
         id="path9" />
    </clipPath>
    <clipPath
       clipPathUnits="userSpaceOnUse"
       id="clipPath11">
      <path
         d="M 0,500 H 500 V 0 H 0 Z"
         transform="translate(-105.50361,-125.6537)"
         id="path11" />
    </clipPath>
    <clipPath
       clipPathUnits="userSpaceOnUse"
       id="clipPath13">
      <path
         d="M 0,500 H 500 V 0 H 0 Z"
         transform="translate(-115.7311,-116.84021)"
         id="path13" />
    </clipPath>
    <clipPath
       clipPathUnits="userSpaceOnUse"
       id="clipPath15">
      <path
         d="M 0,500 H 500 V 0 H 0 Z"
         transform="translate(-115.00821,-109.0373)"
         id="path15" />
    </clipPath>
    <clipPath
       clipPathUnits="userSpaceOnUse"
       id="clipPath17">
      <path
         d="M 0,500 H 500 V 0 H 0 Z"
         transform="translate(-125.1357,-107.47691)"
         id="path17" />
    </clipPath>
  </defs>
  <g
     id="layer1"
     transform="translate(-71.696768,-107.09539)">
    <g
       id="g1"
       transform="rotate(-37.884297,80.978853,115.47151)">
      <path
         id="path2"
         d="m 0,0 c -1.462,-1.381 -3.981,-1.439 -5.504,-0.126 -1.524,1.313 -1.838,3.813 -0.688,5.463 0.736,1.054 1.991,1.727 3.276,1.757 C -1.63,7.123 -0.346,6.508 0.437,5.488 1.662,3.893 1.462,1.381 0,0 m -10,9 c -1.462,-1.381 -3.981,-1.439 -5.504,-0.126 -1.524,1.313 -1.838,3.813 -0.688,5.463 0.736,1.054 1.991,1.727 3.276,1.757 1.286,0.029 2.57,-0.586 3.353,-1.606 C -8.338,12.893 -8.538,10.381 -10,9 m -10,8.25 c -1.462,-1.381 -3.981,-1.439 -5.504,-0.126 -1.524,1.313 -1.838,3.813 -0.688,5.463 0.736,1.054 1.991,1.727 3.276,1.757 1.286,0.029 2.57,-0.586 3.353,-1.606 1.225,-1.595 1.025,-4.107 -0.437,-5.488 m 42.664,1.872 c -1.388,5.12 -5.572,8.92 -9.56,12.417 -4.174,3.66 -8.347,7.319 -12.521,10.979 -3.252,2.851 -7.014,5.882 -11.325,5.542 -3.212,-0.253 -5.952,-2.358 -8.331,-4.531 -5.797,-5.292 -10.731,-11.527 -14.548,-18.386 -0.748,-1.342 -1.47,-2.776 -1.476,-4.313 -0.005,-1.537 0.937,-3.185 2.446,-3.472 -2.67,-1.299 -4.9,-3.485 -6.251,-6.129 4.39,-3.869 11.593,-0.759 16.942,-3.131 2.659,-1.18 4.535,-3.575 6.461,-5.755 3.376,-3.822 7.225,-7.225 11.431,-10.109 2.437,-1.671 5.202,-3.222 8.152,-3.034 4.126,0.263 7.207,3.753 9.798,6.976 2.669,3.321 5.363,6.681 7.184,10.533 1.821,3.852 2.713,8.301 1.598,12.413"
         style="display:inline;fill:#7182f4;fill-opacity:1;fill-rule:nonzero;stroke:none"
         transform="matrix(0.35277776,0,0,-0.35277776,83.573759,122.08797)"
         clip-path="url(#clipPath3)" />
      <path
         id="path4"
         d="m 0,0 c -2.478,-1.261 -4.626,-2.95 -6.53,-4.971 -0.292,-0.31 -0.362,-0.893 0,-1.191 1.793,-1.479 3.817,-1.904 6.088,-2.149 3.019,-0.326 6.525,-0.955 9.522,-0.419 0.665,0.12 0.565,1.067 0,1.243 -4.641,1.455 -10.492,-0.509 -14.59,2.647 0.057,-0.44 0.114,-0.881 0.171,-1.322 1.742,2.03 3.688,3.691 5.915,5.177 C 1.187,-0.577 0.658,0.335 0,0"
         style="display:inline;fill:#3e3e3e;fill-opacity:1;fill-rule:nonzero;stroke:none"
         transform="matrix(0.35277776,0,0,-0.35277776,72.490787,115.89509)"
         clip-path="url(#clipPath5)" />
      <path
         id="path6"
         d="m 0,0 c -6.983,3.597 1.706,13.005 4.422,16.479 1.929,2.466 3.947,4.86 6.01,7.213 2.075,2.366 4.512,4.801 7.808,5.1 3.01,0.272 5.976,-2.55 8.221,-4.195 2.678,-1.962 5.306,-3.99 7.901,-6.06 4.815,-3.841 9.465,-7.888 13.977,-12.079 2.338,-2.171 4.88,-4.266 5.148,-7.672 0.246,-3.124 -1.896,-6.205 -3.575,-8.648 -1.796,-2.613 -3.702,-5.156 -5.553,-7.731 -1.689,-2.347 -3.301,-4.74 -5.461,-6.686 -5.43,-4.892 -12.071,1.433 -16.518,4.742 -4.979,3.704 -9.387,8.05 -14.242,11.881 -0.449,0.354 -1.002,-0.182 -0.63,-0.63 4.529,-5.454 10.581,-9.955 16.262,-14.144 4.724,-3.485 9.892,-7.58 15.547,-3.581 2.19,1.549 3.772,3.882 5.318,6.031 2.391,3.326 4.839,6.618 7.159,9.994 1.67,2.432 2.952,5.038 3.299,7.987 0.339,2.873 -1.314,5.332 -3.19,7.303 -5.187,5.447 -11.246,10.277 -17.125,14.947 -2.706,2.15 -5.467,4.229 -8.263,6.26 -2.547,1.851 -5.012,3.745 -8.275,3.83 -2.548,0.066 -4.853,-1.669 -6.648,-3.27 C 8.727,24.516 6.359,21.232 3.991,18.23 0.705,14.066 -4.909,8.529 -3.538,2.708 -3.157,1.086 -1.982,-0.185 -0.501,-0.857 0.071,-1.116 0.577,-0.297 0,0"
         style="display:inline;fill:#3e3e3e;fill-opacity:1;fill-rule:nonzero;stroke:none"
         transform="matrix(0.35277776,0,0,-0.35277776,72.65645,115.74386)"
         clip-path="url(#clipPath7)" />
      <path
         id="path8"
         d="m 0,0 c 0.837,0.486 2.31,0.541 2.947,-0.331 0.67,-0.917 0.815,-2.247 -0.008,-3.097 -0.849,-0.878 -2.53,-0.669 -3.343,0.106 -1.031,0.983 0.025,2.311 0.344,3.333 0.113,0.364 -0.341,0.752 -0.672,0.516 -1.432,-1.021 -2.062,-3.164 -0.851,-4.619 1.219,-1.466 3.765,-1.723 5.22,-0.429 1.444,1.284 1.28,3.243 0.234,4.73 C 2.987,1.467 0.629,1.699 -0.365,0.472 -0.57,0.218 -0.314,-0.182 0,0"
         style="display:inline;fill:#3e3e3e;fill-opacity:1;fill-rule:nonzero;stroke:none"
         transform="matrix(0.35277776,0,0,-0.35277776,75.169428,114.03521)"
         clip-path="url(#clipPath9)" />
      <path
         id="path10"
         d="m 0,0 c 0.837,0.486 2.309,0.541 2.947,-0.331 0.67,-0.918 0.815,-2.247 -0.008,-3.097 -0.849,-0.878 -2.53,-0.669 -3.343,0.106 -1.031,0.983 0.025,2.31 0.344,3.333 0.113,0.364 -0.341,0.752 -0.672,0.516 -1.432,-1.021 -2.062,-3.164 -0.851,-4.619 1.219,-1.466 3.765,-1.723 5.22,-0.429 1.444,1.284 1.28,3.244 0.234,4.73 C 2.987,1.467 0.629,1.699 -0.365,0.472 -0.571,0.218 -0.314,-0.182 0,0"
         style="display:inline;fill:#3e3e3e;fill-opacity:1;fill-rule:nonzero;stroke:none"
         transform="matrix(0.35277776,0,0,-0.35277776,78.777498,117.14442)"
         clip-path="url(#clipPath11)" />
      <path
         id="path12"
         d="m 0,0 c 0.837,0.485 2.31,0.541 2.947,-0.331 0.67,-0.917 0.815,-2.247 -0.008,-3.097 -0.849,-0.878 -2.53,-0.669 -3.343,0.106 -1.031,0.983 0.025,2.31 0.344,3.333 0.113,0.364 -0.341,0.752 -0.672,0.516 -1.432,-1.021 -2.062,-3.164 -0.851,-4.619 1.219,-1.466 3.765,-1.723 5.22,-0.429 1.444,1.284 1.28,3.243 0.234,4.73 C 2.987,1.467 0.629,1.698 -0.364,0.472 -0.57,0.218 -0.313,-0.182 0,0"
         style="display:inline;fill:#3e3e3e;fill-opacity:1;fill-rule:nonzero;stroke:none"
         transform="matrix(0.35277776,0,0,-0.35277776,82.385531,120.25363)"
         clip-path="url(#clipPath13)" />
      <path
         id="path14"
         d="m 0,0 c 1.65,-2.232 5.285,-3.762 8.008,-3.177 0.503,0.108 0.475,0.862 0,0.987 C 6.749,-1.859 5.459,-1.752 4.205,-1.393 2.813,-0.995 1.646,-0.246 0.347,0.347 0.144,0.441 -0.168,0.228 0,0"
         style="display:inline;fill:#3e3e3e;fill-opacity:1;fill-rule:nonzero;stroke:none"
         transform="matrix(0.35277776,0,0,-0.35277776,82.13051,123.00632)"
         clip-path="url(#clipPath15)" />
      <path
         id="path16"
         d="M 0,0 C 0.525,0.345 1.081,0.637 1.449,1.16 1.688,1.5 1.241,1.812 0.936,1.673 0.391,1.424 0.014,0.932 -0.393,0.509 -0.643,0.25 -0.316,-0.207 0,0"
         style="display:inline;fill:#3e3e3e;fill-opacity:1;fill-rule:nonzero;stroke:none"
         transform="matrix(0.35277776,0,0,-0.35277776,85.703266,123.55679)"
         clip-path="url(#clipPath17)" />
    </g>
  </g>
</svg>
